@startuml
Title Diagrama de estado de un pais
hide empty description
[*] --> PaisSinDueño: iniciar juego
PaisSinDueño--> [*]: salir del juego

PaisSinDueño-> PaisConElDueñoOriginal: repartir tarjetas
PaisConElDueñoOriginal--> [*]: pierde o gana el juego
PaisConElDueñoOriginal--> PaisConElDueñoOriginal: gana batalla
PaisConElDueñoOriginal--> PaisConOtroDueño: pierde batalla
PaisConOtroDueño--> PaisConElDueñoOriginal: pierde batalla
PaisConOtroDueño--> [*]: pierde o gana el juego
@enduml